<svg width="1200" height="800" viewBox="0 0 1200 800" xmlns="http://www.w3.org/2000/svg" fill="none">
  <defs>
    <linearGradient id="habits-bg" x1="0" y1="0" x2="1200" y2="800" gradientUnits="userSpaceOnUse">
      <stop stop-color="#09101A"/>
      <stop offset="1" stop-color="#131C2A"/>
    </linearGradient>
    <radialGradient id="habits-glow" cx="0" cy="0" r="1" gradientUnits="userSpaceOnUse" gradientTransform="translate(290 250) rotate(54.6) scale(470 500)">
      <stop stop-color="#70CFFF" stop-opacity="0.32"/>
      <stop offset="1" stop-color="#70CFFF" stop-opacity="0"/>
    </radialGradient>
    <linearGradient id="habit-bar" x1="720" y1="200" x2="1020" y2="620" gradientUnits="userSpaceOnUse">
      <stop stop-color="#0F1B2B"/>
      <stop offset="1" stop-color="#0A1522"/>
    </linearGradient>
  </defs>
  <rect width="1200" height="800" fill="url(#habits-bg)"/>
  <rect width="1200" height="800" fill="url(#habits-glow)"/>
  <g opacity="0.18" stroke="#8AAACC">
    <path d="M120 140H1080"/>
    <path d="M120 212H1080"/>
    <path d="M120 284H1080"/>
    <path d="M120 356H1080"/>
    <path d="M120 428H1080"/>
    <path d="M120 500H1080"/>
    <path d="M120 572H1080"/>
    <path d="M120 644H1080"/>
  </g>
  <circle cx="300" cy="400" r="92" stroke="#6F88A5" stroke-opacity="0.34" stroke-width="18"/>
  <circle cx="300" cy="400" r="92" stroke="#67C8F8" stroke-width="18" stroke-linecap="round" stroke-dasharray="426 578" transform="rotate(-90 300 400)"/>
  <circle cx="300" cy="400" r="7" fill="#67C8F8"/>
  <path d="M266 404L289 427L338 376" stroke="#67C8F8" stroke-width="8" stroke-linecap="round" stroke-linejoin="round"/>
  <circle cx="510" cy="400" r="76" stroke="#6F88A5" stroke-opacity="0.28" stroke-width="16"/>
  <circle cx="510" cy="400" r="76" stroke="#7B9ABB" stroke-width="16" stroke-linecap="round" stroke-dasharray="312 478" transform="rotate(-90 510 400)"/>
  <circle cx="680" cy="400" r="62" stroke="#6F88A5" stroke-opacity="0.24" stroke-width="14"/>
  <circle cx="680" cy="400" r="62" stroke="#5E78A0" stroke-width="14" stroke-linecap="round" stroke-dasharray="205 389" transform="rotate(-90 680 400)"/>
  <rect x="760" y="190" width="280" height="430" rx="22" fill="url(#habit-bar)" stroke="#86A8CA" stroke-opacity="0.22"/>
  <rect x="800" y="504" width="40" height="82" rx="10" fill="#2E4965"/>
  <rect x="852" y="446" width="40" height="140" rx="10" fill="#3E6285"/>
  <rect x="904" y="370" width="40" height="216" rx="10" fill="#4D7BA5"/>
  <rect x="956" y="302" width="40" height="284" rx="10" fill="#67C8F8" fill-opacity="0.72"/>
  <rect x="790" y="234" width="220" height="16" rx="8" fill="#99BCDE" fill-opacity="0.36"/>
  <rect x="790" y="262" width="156" height="10" rx="5" fill="#84A2C3" fill-opacity="0.25"/>
</svg>
