<svg width="1200" height="800" viewBox="0 0 1200 800" xmlns="http://www.w3.org/2000/svg" fill="none">
  <defs>
    <linearGradient id="priority-bg" x1="0" y1="0" x2="1200" y2="800" gradientUnits="userSpaceOnUse">
      <stop stop-color="#07101B"/>
      <stop offset="1" stop-color="#0B1828"/>
    </linearGradient>
    <radialGradient id="priority-glow" cx="0" cy="0" r="1" gradientUnits="userSpaceOnUse" gradientTransform="translate(978 190) rotate(143.6) scale(560 416)">
      <stop stop-color="#4ED2FF" stop-opacity="0.45"/>
      <stop offset="1" stop-color="#4ED2FF" stop-opacity="0"/>
    </radialGradient>
    <linearGradient id="priority-card" x1="250" y1="180" x2="950" y2="622" gradientUnits="userSpaceOnUse">
      <stop stop-color="#0F1D2F"/>
      <stop offset="1" stop-color="#0B1624"/>
    </linearGradient>
  </defs>
  <rect width="1200" height="800" fill="url(#priority-bg)"/>
  <rect width="1200" height="800" fill="url(#priority-glow)"/>
  <g opacity="0.17" stroke="#7EA5CB">
    <path d="M100 120L1130 760"/>
    <path d="M40 170L1070 810"/>
    <path d="M180 70L1210 710"/>
    <path d="M-20 260L1010 900"/>
  </g>
  <rect x="250" y="178" width="700" height="132" rx="20" fill="url(#priority-card)" stroke="#62CBF5" stroke-opacity="0.7"/>
  <rect x="250" y="334" width="700" height="132" rx="20" fill="#0E1A2A" stroke="#85A6C8" stroke-opacity="0.22"/>
  <rect x="250" y="490" width="700" height="132" rx="20" fill="#0C1623" stroke="#85A6C8" stroke-opacity="0.16"/>
  <g>
    <rect x="292" y="222" width="20" height="44" rx="10" fill="#5ED1FF"/>
    <rect x="328" y="228" width="266" height="16" rx="8" fill="#9FC7E8" fill-opacity="0.42"/>
    <rect x="328" y="252" width="180" height="10" rx="5" fill="#8BACCD" fill-opacity="0.24"/>
  </g>
  <g opacity="0.86">
    <rect x="292" y="378" width="20" height="44" rx="10" fill="#3D5470"/>
    <rect x="328" y="384" width="246" height="16" rx="8" fill="#9FC7E8" fill-opacity="0.26"/>
    <rect x="328" y="408" width="168" height="10" rx="5" fill="#8BACCD" fill-opacity="0.2"/>
  </g>
  <g opacity="0.78">
    <rect x="292" y="534" width="20" height="44" rx="10" fill="#344A62"/>
    <rect x="328" y="540" width="220" height="16" rx="8" fill="#9FC7E8" fill-opacity="0.22"/>
    <rect x="328" y="564" width="150" height="10" rx="5" fill="#8BACCD" fill-opacity="0.18"/>
  </g>
  <g>
    <circle cx="842" cy="232" r="14" fill="#5ED1FF" fill-opacity="0.8"/>
    <circle cx="884" cy="252" r="10" fill="#5ED1FF" fill-opacity="0.55"/>
    <circle cx="914" cy="224" r="8" fill="#5ED1FF" fill-opacity="0.35"/>
    <path d="M842 232L884 252L914 224" stroke="#71D9FF" stroke-opacity="0.8" stroke-width="2"/>
  </g>
  <path d="M790 424C830 392 862 406 898 378C930 353 954 360 982 336" stroke="#5ED1FF" stroke-opacity="0.7" stroke-width="3" stroke-linecap="round"/>
  <path d="M790 576C818 550 852 566 884 544C916 522 946 532 978 510" stroke="#6A86A5" stroke-opacity="0.6" stroke-width="3" stroke-linecap="round"/>
</svg>
