<svg width="1200" height="800" viewBox="0 0 1200 800" xmlns="http://www.w3.org/2000/svg" fill="none">
  <defs>
    <linearGradient id="clarity-bg" x1="0" y1="0" x2="1200" y2="800" gradientUnits="userSpaceOnUse">
      <stop stop-color="#09121D"/>
      <stop offset="1" stop-color="#111C2A"/>
    </linearGradient>
    <radialGradient id="clarity-glow" cx="0" cy="0" r="1" gradientUnits="userSpaceOnUse" gradientTransform="translate(260 184) rotate(47) scale(480 430)">
      <stop stop-color="#72CFFF" stop-opacity="0.33"/>
      <stop offset="1" stop-color="#72CFFF" stop-opacity="0"/>
    </radialGradient>
    <linearGradient id="clarity-shell" x1="220" y1="170" x2="980" y2="630" gradientUnits="userSpaceOnUse">
      <stop stop-color="#0F1C2D"/>
      <stop offset="1" stop-color="#0B1523"/>
    </linearGradient>
  </defs>
  <rect width="1200" height="800" fill="url(#clarity-bg)"/>
  <rect width="1200" height="800" fill="url(#clarity-glow)"/>
  <rect x="220" y="170" width="760" height="460" rx="28" fill="url(#clarity-shell)" stroke="#90B0CE" stroke-opacity="0.22"/>
  <rect x="262" y="214" width="676" height="64" rx="14" fill="#132338"/>
  <circle cx="294" cy="246" r="8" fill="#66CDFB"/>
  <rect x="314" y="238" width="220" height="16" rx="8" fill="#9FC3E4" fill-opacity="0.42"/>
  <rect x="262" y="302" width="206" height="286" rx="16" fill="#0D1929" stroke="#85A7C9" stroke-opacity="0.18"/>
  <rect x="496" y="302" width="206" height="286" rx="16" fill="#0D1929" stroke="#85A7C9" stroke-opacity="0.18"/>
  <rect x="730" y="302" width="208" height="286" rx="16" fill="#0D1929" stroke="#85A7C9" stroke-opacity="0.18"/>
  <rect x="290" y="340" width="148" height="14" rx="7" fill="#90B0CE" fill-opacity="0.28"/>
  <rect x="290" y="366" width="112" height="10" rx="5" fill="#7D9BBB" fill-opacity="0.22"/>
  <rect x="290" y="406" width="16" height="16" rx="4" fill="#63CBF8" fill-opacity="0.85"/>
  <rect x="316" y="408" width="112" height="12" rx="6" fill="#95B7D9" fill-opacity="0.3"/>
  <rect x="524" y="340" width="150" height="14" rx="7" fill="#90B0CE" fill-opacity="0.28"/>
  <circle cx="559" cy="414" r="46" stroke="#486A8C" stroke-opacity="0.5" stroke-width="10"/>
  <circle cx="559" cy="414" r="46" stroke="#66CDFB" stroke-width="10" stroke-linecap="round" stroke-dasharray="154 289" transform="rotate(-90 559 414)"/>
  <rect x="764" y="340" width="138" height="14" rx="7" fill="#90B0CE" fill-opacity="0.28"/>
  <rect x="764" y="390" width="44" height="160" rx="10" fill="#2D4A67"/>
  <rect x="818" y="430" width="44" height="120" rx="10" fill="#3B6184"/>
  <rect x="872" y="360" width="44" height="190" rx="10" fill="#66CDFB" fill-opacity="0.72"/>
</svg>
