<svg width="1200" height="800" viewBox="0 0 1200 800" xmlns="http://www.w3.org/2000/svg" fill="none">
  <defs>
    <linearGradient id="momentum-bg" x1="0" y1="0" x2="1200" y2="800" gradientUnits="userSpaceOnUse">
      <stop stop-color="#08111C"/>
      <stop offset="1" stop-color="#0F1B2A"/>
    </linearGradient>
    <radialGradient id="momentum-glow" cx="0" cy="0" r="1" gradientUnits="userSpaceOnUse" gradientTransform="translate(900 220) rotate(148) scale(530 380)">
      <stop stop-color="#58CFFD" stop-opacity="0.34"/>
      <stop offset="1" stop-color="#58CFFD" stop-opacity="0"/>
    </radialGradient>
    <linearGradient id="bar" x1="270" y1="590" x2="930" y2="220" gradientUnits="userSpaceOnUse">
      <stop stop-color="#2A4460"/>
      <stop offset="1" stop-color="#6BD3FF"/>
    </linearGradient>
  </defs>
  <rect width="1200" height="800" fill="url(#momentum-bg)"/>
  <rect width="1200" height="800" fill="url(#momentum-glow)"/>
  <g opacity="0.16" stroke="#84A6C8">
    <path d="M130 170H1070"/>
    <path d="M130 260H1070"/>
    <path d="M130 350H1070"/>
    <path d="M130 440H1070"/>
    <path d="M130 530H1070"/>
    <path d="M130 620H1070"/>
  </g>
  <rect x="258" y="190" width="684" height="430" rx="28" fill="#0D1929" stroke="#8BAECC" stroke-opacity="0.18"/>
  <rect x="320" y="510" width="80" height="70" rx="14" fill="#2C4764"/>
  <rect x="430" y="462" width="80" height="118" rx="14" fill="#385A7B"/>
  <rect x="540" y="404" width="80" height="176" rx="14" fill="#476F96"/>
  <rect x="650" y="330" width="80" height="250" rx="14" fill="#5488B7"/>
  <rect x="760" y="248" width="80" height="332" rx="14" fill="url(#bar)"/>
  <path d="M360 474C431 420 498 438 574 380C648 324 724 335 800 268" stroke="#6CD4FF" stroke-opacity="0.9" stroke-width="5" stroke-linecap="round"/>
  <circle cx="360" cy="474" r="9" fill="#6CD4FF"/>
  <circle cx="574" cy="380" r="9" fill="#6CD4FF"/>
  <circle cx="800" cy="268" r="9" fill="#6CD4FF"/>
</svg>
